<svg xmlns="http://www.w3.org/2000/svg" viewBox="0 0 128 128"><defs><style>.cls-1{isolation:isolate;}.cls-2{mix-blend-mode:darken;}.cls-3{fill:#95c9ef;}.cls-4{fill:#86afe2;}.cls-5{fill:#4d5db1;opacity:0.06;mix-blend-mode:multiply;}.cls-6{fill:none;stroke:#fff;stroke-linecap:round;stroke-linejoin:round;stroke-width:2px;}</style></defs><title>blue-planet</title><g class="cls-1"><g id="icons" class="cls-2"><path class="cls-3" d="M120,64A56,56,0,1,1,24,24.81,56,56,0,0,1,54,8.88,56.33,56.33,0,0,1,64,8c.83,0,1.65,0,2.47.06A55.77,55.77,0,0,1,104.2,25a56.53,56.53,0,0,1,6.46,8A55.77,55.77,0,0,1,120,64Z"/><path class="cls-4" d="M28.93,59.15c4.5-13.61,42.76-6,23.86,8S25,71.17,28.93,59.15Z"/><path class="cls-4" d="M85.52,72.54c-7.57-13.68,15.41-21,18.16-7S90.5,81.54,85.52,72.54Z"/><path class="cls-4" d="M72.91,117.69a14.39,14.39,0,0,1-.23,1.64A56.48,56.48,0,0,1,64,120a55.75,55.75,0,0,1-31.6-9.76C45.67,88.4,74.79,95.47,72.91,117.69Z"/><path class="cls-4" d="M64.14,85.55C57.06,80.2,69.67,74,71.52,81.36S69.67,89.74,64.14,85.55Z"/><path class="cls-4" d="M69.7,35C62.86,25.58,79,26.47,78,32.88S72.79,39.3,69.7,35Z"/><path class="cls-4" d="M29.33,32.62A8.64,8.64,0,0,1,24,24.81a55.18,55.18,0,0,1,9.18-7.57c2.31.54,4.93,2.1,7.69,5.06C54.34,36.75,38,36.75,29.33,32.62Z"/><path class="cls-4" d="M110.66,33a14.73,14.73,0,0,1-2.86,5.15c-9.28,11.47-19.59,0-12.37-8.34,2.77-3.2,6-4.67,8.77-4.81A56.53,56.53,0,0,1,110.66,33Z"/><path class="cls-4" d="M93,99.95c-9.53-7,0-13.51,6.93-7.72S100.93,105.74,93,99.95Z"/><path class="cls-4" d="M56.33,13.36c-1.85-1.64-2.48-3.18-2.29-4.48A56.33,56.33,0,0,1,64,8c.83,0,1.65,0,2.47.06a6.53,6.53,0,0,1,.75,1.44C70.49,18.17,62.86,19.14,56.33,13.36Z"/><path class="cls-4" d="M23.81,86.47c-.67,3.2-3.76,5.94-7.19,7.39a55.88,55.88,0,0,1-6.46-14.38C16,73.79,25.45,78.64,23.81,86.47Z"/><path class="cls-5" d="M94.78,17.22A56,56,0,0,1,17.22,94.78,56,56,0,1,0,94.78,17.22Z"/><path class="cls-5" d="M99.39,20.61A56,56,0,0,1,20.61,99.39,56,56,0,1,0,99.39,20.61Z"/><path class="cls-6" d="M21.08,36.45A50.27,50.27,0,0,0,15.57,48"/><path class="cls-6" d="M32.16,24.16a51,51,0,0,1,17-9"/></g></g></svg>